<svg id="Layer_1" data-name="Layer 1" xmlns="http://www.w3.org/2000/svg" viewBox="0 0 496.98 101.14">
  <defs>
    <style>
      .cls-1 {
        fill: #273c57;
      }

      .cls-2 {
        fill: #fe6116;
      }
    </style>
  </defs>
  <title>Primary-RGB</title>
  <g>
    <g>
      <g>
        <path class="cls-1" d="M127.37,76.29H113.72l-2.28,5.92H103.5l14.06-35.4h6.07l14.11,35.4H129.6Zm-2.48-6.42L120.6,58.54l-4.4,11.33Z"/>
        <path class="cls-1" d="M154.77,46.81V75H171v7.18H147.29V46.81Z"/>
        <path class="cls-1" d="M204.17,46.81V54H190v6.37h12.65v7.18H190V75h14.21v7.18H182.48V46.81Z"/>
        <path class="cls-1" d="M236.68,82.21l-8-13.51h-3.84V82.21h-7.48V46.81H231a11.15,11.15,0,0,1,11.17,10.92c0,4.55-2.17,8.09-5.66,9.81l9.26,14.67Zm-11.83-20h5.41a4.1,4.1,0,1,0,0-8.19h-5.41Z"/>
      </g>
      <path class="cls-1" d="M280.52,54H270.16V82.21h-7.49V54H252.36V46.81h28.16Z"/>
      <path class="cls-1" d="M310.2,46.81V75h16.23v7.18H302.71V46.81Z"/>
      <g>
        <path class="cls-2" d="M370.13,64.51A17.77,17.77,0,0,1,352,82.71c-10.31,0-18-7.84-18-18.2s7.74-18.21,18-18.21A17.77,17.77,0,0,1,370.13,64.51Zm-28.47,0c0,6.22,4.45,10.92,10.36,10.92s10.37-4.7,10.37-10.92S357.94,53.59,352,53.59,341.66,58.29,341.66,64.51Z"/>
        <path class="cls-1" d="M414.33,65.67c0,10.17-7.13,17-17.3,17s-18-7.84-18-18.2,7.74-18.21,18.06-18.21c7.18,0,14.1,3.8,15.87,9.21l-7.13,3.18c-1.26-3.08-4.8-5.1-8.74-5.1-5.92,0-10.37,4.7-10.37,10.92a10.54,10.54,0,0,0,10.92,10.92c5.31,0,8.55-3.34,8.8-7.08v0h-9.91V62.23h17.6A27.62,27.62,0,0,1,414.33,65.67Z"/>
        <path class="cls-1" d="M432.78,46.81v35.4H425.3V46.81Z"/>
        <path class="cls-1" d="M461.6,82.71c-10.16,0-17.85-8-17.85-18.2S451.44,46.3,461.6,46.3c7.18,0,13.4,3.8,15.12,9.21l-6.67,3.18c-1.32-3.08-4.45-5.1-8.45-5.1-6,0-10.16,4.65-10.16,10.92s4.14,10.92,10.16,10.92c4.25,0,7.54-2.22,8.65-5.71l6.87,3.13C475.41,78.67,469,82.71,461.6,82.71Z"/>
      </g>
      <path class="cls-1" d="M492.25,54.18l-1.18-2h-.57v2h-1.11V48.94h2a1.65,1.65,0,0,1,1.65,1.62,1.56,1.56,0,0,1-.83,1.45l1.37,2.17Zm-1.75-3h.8a.61.61,0,1,0,0-1.21h-.8Z"/>
      <path class="cls-1" d="M491.28,57.36a5.71,5.71,0,1,1,5.7-5.7,5.7,5.7,0,0,1-5.7,5.7m0-10.18a4.48,4.48,0,1,0,4.48,4.48,4.49,4.49,0,0,0-4.48-4.48"/>
    </g>
    <g>
      <path class="cls-1" d="M57.5,21.66c5.37-6.5,3.57-16.41-2.77-20.17C49.16-1.81,40.71,0,35.79,11c-1.14,2.6-3.82,11.37-6.55,21.11-2.19,6-7,17.71-10.89,23.67a9.26,9.26,0,0,0-.57,1c-7.86,11.48-15.27,23-16.5,26.26-3,7.89-.66,14.76,6.24,17.37S23.41,98.3,25,90c1-5.05.78-14.86,2.9-27.36,1.22-5.26,4.67-17.54,12.83-25.79,5.76-5.58,10.72-7.9,16.75-15.2ZM88.05,78.18C83.84,68.36,47.78,21,54.61,36,69.42,68.32,62,72.07,65.53,89.48,67.24,97.9,76.09,102.7,83,100c6.05-2.38,9.88-10.52,5.06-21.81Z"/>
      <path class="cls-2" d="M58.68,63.87a12.54,12.54,0,1,1-12.57-12.5,12.55,12.55,0,0,1,12.57,12.5Z"/>
    </g>
  </g>
</svg>
