<svg width="19" height="21" viewBox="0 0 19 21" fill="none" xmlns="http://www.w3.org/2000/svg">
<path d="M11.5703 4.49572C12.6508 3.14611 12.2886 1.08846 11.0129 0.307763C9.89213 -0.377426 8.19186 -0.00161005 7.20188 2.28235C6.97249 2.8222 6.43323 4.64314 5.88392 6.66548C5.44325 7.91128 4.47541 10.3427 3.69268 11.5802C3.65031 11.6468 3.61201 11.7162 3.57799 11.7878C1.99644 14.1714 0.50543 16.5634 0.257935 17.2402C-0.34571 18.8785 0.125133 20.3049 1.51352 20.8468C2.9019 21.3887 4.71083 20.4087 5.03076 18.6854C5.23198 17.6368 5.18771 15.5999 5.61429 13.0045C5.85977 11.9124 6.55396 9.36264 8.19588 7.64966C9.35488 6.49107 10.3529 6.00936 11.5662 4.49364L11.5703 4.49572ZM17.7174 16.2311C16.8703 14.1922 9.61445 4.35868 10.9887 7.47318C13.9687 14.1839 12.4757 14.9625 13.186 18.5774C13.5301 20.3257 15.3109 21.3223 16.7013 20.7617C17.9186 20.2675 18.6893 18.5774 17.7194 16.2332L17.7174 16.2311Z" fill="white"/>
<path d="M11.8079 13.2592C11.8095 13.7743 11.663 14.2783 11.387 14.7074C11.111 15.1365 10.7178 15.4715 10.2572 15.6701C9.79666 15.8686 9.28938 15.9217 8.79955 15.8227C8.30973 15.7237 7.85937 15.477 7.50544 15.1138C7.15152 14.7506 6.90993 14.2873 6.81123 13.7824C6.71254 13.2775 6.76117 12.7537 6.95099 12.2774C7.1408 11.801 7.46326 11.3935 7.87759 11.1062C8.29191 10.819 8.77947 10.6651 9.27861 10.6638C9.9473 10.6627 10.5891 10.9353 11.0633 11.4219C11.5374 11.9085 11.8052 12.5692 11.8079 13.2592Z" fill="#FE6116"/>
</svg>
